G04 #@! TF.GenerationSoftware,KiCad,Pcbnew,5.1.4+dfsg1-1*
G04 #@! TF.CreationDate,2019-10-31T22:05:16+07:00*
G04 #@! TF.ProjectId,myFarm,6d794661-726d-42e6-9b69-6361645f7063,rev?*
G04 #@! TF.SameCoordinates,Original*
G04 #@! TF.FileFunction,Legend,Bot*
G04 #@! TF.FilePolarity,Positive*
%FSLAX46Y46*%
G04 Gerber Fmt 4.6, Leading zero omitted, Abs format (unit mm)*
G04 Created by KiCad (PCBNEW 5.1.4+dfsg1-1) date 2019-10-31 22:05:16*
%MOMM*%
%LPD*%
G04 APERTURE LIST*
%ADD10C,0.120000*%
%ADD11C,0.150000*%
G04 APERTURE END LIST*
D10*
X102810000Y-87690000D02*
X104140000Y-87690000D01*
X102810000Y-86360000D02*
X102810000Y-87690000D01*
X102810000Y-85090000D02*
X105470000Y-85090000D01*
X105470000Y-85090000D02*
X105470000Y-82490000D01*
X102810000Y-85090000D02*
X102810000Y-82490000D01*
X102810000Y-82490000D02*
X105470000Y-82490000D01*
X83125000Y-77410000D02*
X85360000Y-77410000D01*
X83125000Y-87690000D02*
X83125000Y-77410000D01*
X89595000Y-87690000D02*
X83125000Y-87690000D01*
X89595000Y-77410000D02*
X89595000Y-87690000D01*
X87360000Y-77410000D02*
X89595000Y-77410000D01*
X85360000Y-77410000D02*
G75*
G03X87360000Y-77410000I1000000J0D01*
G01*
X78510000Y-60240000D02*
X101830000Y-60240000D01*
X75970000Y-67140000D02*
X75970000Y-92570000D01*
X101830000Y-60240000D02*
X101830000Y-92570000D01*
X99710000Y-94700000D02*
X78100000Y-94700000D01*
D11*
G36*
X74930000Y-86995000D02*
G01*
X74930000Y-85725000D01*
X75565000Y-86360000D01*
X74930000Y-86995000D01*
G37*
X74930000Y-86995000D02*
X74930000Y-85725000D01*
X75565000Y-86360000D01*
X74930000Y-86995000D01*
D10*
X75970000Y-67140000D02*
X78510000Y-67140000D01*
X78510000Y-67140000D02*
X78510000Y-60240000D01*
X75970000Y-92570000D02*
G75*
G03X78100000Y-94700000I2130000J0D01*
G01*
X99700000Y-94700000D02*
G75*
G03X101830000Y-92570000I0J2130000D01*
G01*
X109220000Y-55880000D02*
X107950000Y-55880000D01*
X107950000Y-55880000D02*
X107950000Y-57150000D01*
D11*
X104949523Y-88142380D02*
X104949523Y-88856666D01*
X104997142Y-88999523D01*
X105092380Y-89094761D01*
X105235238Y-89142380D01*
X105330476Y-89142380D01*
X103949523Y-89142380D02*
X104520952Y-89142380D01*
X104235238Y-89142380D02*
X104235238Y-88142380D01*
X104330476Y-88285238D01*
X104425714Y-88380476D01*
X104520952Y-88428095D01*
X102997142Y-89142380D02*
X103568571Y-89142380D01*
X103282857Y-89142380D02*
X103282857Y-88142380D01*
X103378095Y-88285238D01*
X103473333Y-88380476D01*
X103568571Y-88428095D01*
X87121904Y-75862380D02*
X87121904Y-76671904D01*
X87074285Y-76767142D01*
X87026666Y-76814761D01*
X86931428Y-76862380D01*
X86740952Y-76862380D01*
X86645714Y-76814761D01*
X86598095Y-76767142D01*
X86550476Y-76671904D01*
X86550476Y-75862380D01*
X86169523Y-75862380D02*
X85550476Y-75862380D01*
X85883809Y-76243333D01*
X85740952Y-76243333D01*
X85645714Y-76290952D01*
X85598095Y-76338571D01*
X85550476Y-76433809D01*
X85550476Y-76671904D01*
X85598095Y-76767142D01*
X85645714Y-76814761D01*
X85740952Y-76862380D01*
X86026666Y-76862380D01*
X86121904Y-76814761D01*
X86169523Y-76767142D01*
X100231904Y-58812380D02*
X100231904Y-59621904D01*
X100184285Y-59717142D01*
X100136666Y-59764761D01*
X100041428Y-59812380D01*
X99850952Y-59812380D01*
X99755714Y-59764761D01*
X99708095Y-59717142D01*
X99660476Y-59621904D01*
X99660476Y-58812380D01*
X98660476Y-59812380D02*
X99231904Y-59812380D01*
X98946190Y-59812380D02*
X98946190Y-58812380D01*
X99041428Y-58955238D01*
X99136666Y-59050476D01*
X99231904Y-59098095D01*
X106402380Y-61201666D02*
X107116666Y-61201666D01*
X107259523Y-61154047D01*
X107354761Y-61058809D01*
X107402380Y-60915952D01*
X107402380Y-60820714D01*
X106402380Y-61582619D02*
X106402380Y-62249285D01*
X107402380Y-61820714D01*
M02*
