M48
; DRILL file {KiCad 5.1.2-f72e74a~84~ubuntu19.04.1} date ส. 20 ก.ค. 2562, 08:00:07
; FORMAT={-:-/ absolute / metric / decimal}
; #@! TF.CreationDate,2019-07-20T08:00:07+07:00
; #@! TF.GenerationSoftware,Kicad,Pcbnew,5.1.2-f72e74a~84~ubuntu19.04.1
FMAT,2
METRIC
T1C0.762
T2C1.000
%
G90
G05
T1
X92.71Y-67.31
X92.71Y-69.85
X92.71Y-72.39
X92.71Y-74.93
X92.71Y-77.47
X92.71Y-80.01
X92.71Y-82.55
X92.71Y-85.09
X92.71Y-87.63
X92.71Y-90.17
X107.95Y-67.31
X107.95Y-69.85
X107.95Y-72.39
X107.95Y-74.93
X107.95Y-77.47
X107.95Y-80.01
X107.95Y-82.55
X107.95Y-85.09
X107.95Y-87.63
X107.95Y-90.17
X110.49Y-67.31
X110.49Y-69.85
X110.49Y-72.39
X110.49Y-74.93
X110.49Y-77.47
X110.49Y-80.01
X110.49Y-82.55
X110.49Y-85.09
X110.49Y-87.63
X110.49Y-90.17
T2
X116.84Y-63.5
X116.84Y-66.04
X116.84Y-68.58
X116.84Y-71.12
X116.84Y-77.47
X116.84Y-80.01
X116.84Y-82.55
X116.84Y-85.09
X116.84Y-87.63
X116.84Y-90.17
X87.63Y-57.15
X90.17Y-57.15
X92.71Y-57.15
X95.25Y-57.15
X68.58Y-82.55
X68.58Y-85.09
X68.58Y-87.63
X101.6Y-53.34
X101.6Y-55.88
X101.6Y-58.42
X101.6Y-60.96
X76.2Y-64.77
X78.74Y-64.77
X81.28Y-64.77
X76.2Y-57.15
X78.74Y-57.15
X76.2Y-69.85
X76.2Y-72.39
X76.2Y-74.93
X76.2Y-77.47
X76.2Y-80.01
X76.2Y-82.55
X76.2Y-85.09
X76.2Y-87.63
X99.06Y-69.85
X99.06Y-72.39
X99.06Y-74.93
X99.06Y-77.47
X99.06Y-80.01
X99.06Y-82.55
X99.06Y-85.09
X99.06Y-87.63
X107.95Y-55.88
X107.95Y-58.42
T0
M30
