M48
; DRILL file {KiCad 5.1.4+dfsg1-1} date พฤ. 31 ต.ค. 2562, 22:05:51
; FORMAT={-:-/ absolute / metric / decimal}
; #@! TF.CreationDate,2019-10-31T22:05:51+07:00
; #@! TF.GenerationSoftware,Kicad,Pcbnew,5.1.4+dfsg1-1
FMAT,2
METRIC
T1C0.762
T2C0.800
T3C1.000
%
G90
G05
T1
X93.98Y-66.04
X93.98Y-68.58
X93.98Y-71.12
X93.98Y-73.66
X93.98Y-76.2
X93.98Y-78.74
X93.98Y-81.28
X93.98Y-83.82
X93.98Y-86.36
X93.98Y-88.9
X109.22Y-66.04
X109.22Y-68.58
X109.22Y-71.12
X109.22Y-73.66
X109.22Y-76.2
X109.22Y-78.74
X109.22Y-81.28
X109.22Y-83.82
X109.22Y-86.36
X109.22Y-88.9
X111.76Y-66.04
X111.76Y-68.58
X111.76Y-71.12
X111.76Y-73.66
X111.76Y-76.2
X111.76Y-78.74
X111.76Y-81.28
X111.76Y-83.82
X111.76Y-86.36
X111.76Y-88.9
T2
X81.28Y-78.74
X81.28Y-81.28
X81.28Y-83.82
X81.28Y-86.36
X91.44Y-78.74
X91.44Y-81.28
X91.44Y-83.82
X91.44Y-86.36
T3
X69.85Y-93.98
X72.39Y-93.98
X104.14Y-83.82
X104.14Y-86.36
X85.09Y-71.12
X85.09Y-73.66
X85.09Y-76.2
X77.47Y-55.88
X80.01Y-55.88
X109.22Y-93.98
X109.22Y-96.52
X69.85Y-76.2
X69.85Y-78.74
X69.85Y-81.28
X69.85Y-59.69
X69.85Y-62.23
X69.85Y-64.77
X69.85Y-67.31
X69.85Y-69.85
X69.85Y-72.39
X104.14Y-93.98
X104.14Y-96.52
X85.09Y-93.98
X85.09Y-96.52
X118.11Y-76.2
X118.11Y-78.74
X118.11Y-81.28
X118.11Y-83.82
X118.11Y-86.36
X118.11Y-88.9
X118.11Y-91.44
X118.11Y-93.98
X99.06Y-93.98
X99.06Y-96.52
X111.76Y-50.8
X111.76Y-53.34
X77.47Y-68.58
X77.47Y-71.12
X77.47Y-73.66
X77.47Y-76.2
X77.47Y-78.74
X77.47Y-81.28
X77.47Y-83.82
X77.47Y-86.36
X100.33Y-68.58
X100.33Y-71.12
X100.33Y-73.66
X100.33Y-76.2
X100.33Y-78.74
X100.33Y-81.28
X100.33Y-83.82
X100.33Y-86.36
X118.11Y-62.23
X118.11Y-64.77
X118.11Y-67.31
X118.11Y-69.85
X93.98Y-93.98
X93.98Y-96.52
X109.22Y-57.15
X111.76Y-57.15
X114.3Y-57.15
X116.84Y-57.15
X86.36Y-55.88
X88.9Y-55.88
X91.44Y-55.88
X93.98Y-55.88
T0
M30
