G04 #@! TF.GenerationSoftware,KiCad,Pcbnew,5.1.4+dfsg1-1*
G04 #@! TF.CreationDate,2019-10-31T22:05:16+07:00*
G04 #@! TF.ProjectId,myFarm,6d794661-726d-42e6-9b69-6361645f7063,rev?*
G04 #@! TF.SameCoordinates,Original*
G04 #@! TF.FileFunction,Copper,L1,Top*
G04 #@! TF.FilePolarity,Positive*
%FSLAX46Y46*%
G04 Gerber Fmt 4.6, Leading zero omitted, Abs format (unit mm)*
G04 Created by KiCad (PCBNEW 5.1.4+dfsg1-1) date 2019-10-31 22:05:16*
%MOMM*%
%LPD*%
G04 APERTURE LIST*
%ADD10O,1.700000X1.700000*%
%ADD11R,1.700000X1.700000*%
%ADD12O,1.600000X1.600000*%
%ADD13R,1.600000X1.600000*%
%ADD14O,2.000000X1.600000*%
%ADD15R,2.000000X2.000000*%
%ADD16C,1.524000*%
%ADD17C,1.000000*%
%ADD18C,0.500000*%
%ADD19C,2.000000*%
%ADD20C,0.250000*%
G04 APERTURE END LIST*
D10*
X104140000Y-96520000D03*
D11*
X104140000Y-93980000D03*
D10*
X118110000Y-93980000D03*
X118110000Y-91440000D03*
X118110000Y-88900000D03*
X118110000Y-86360000D03*
X118110000Y-83820000D03*
X118110000Y-81280000D03*
X118110000Y-78740000D03*
D11*
X118110000Y-76200000D03*
D10*
X85090000Y-93980000D03*
D11*
X85090000Y-96520000D03*
D10*
X109220000Y-96520000D03*
D11*
X109220000Y-93980000D03*
D10*
X99060000Y-96520000D03*
D11*
X99060000Y-93980000D03*
D10*
X93980000Y-96520000D03*
D11*
X93980000Y-93980000D03*
D10*
X104140000Y-83820000D03*
D11*
X104140000Y-86360000D03*
D10*
X69850000Y-59690000D03*
X69850000Y-62230000D03*
X69850000Y-64770000D03*
X69850000Y-67310000D03*
X69850000Y-69850000D03*
D11*
X69850000Y-72390000D03*
D10*
X72390000Y-93980000D03*
D11*
X69850000Y-93980000D03*
D12*
X81280000Y-78740000D03*
X91440000Y-86360000D03*
X81280000Y-81280000D03*
X91440000Y-83820000D03*
X81280000Y-83820000D03*
X91440000Y-81280000D03*
X81280000Y-86360000D03*
D13*
X91440000Y-78740000D03*
D14*
X77470000Y-83820000D03*
D15*
X77470000Y-86360000D03*
D14*
X77470000Y-81280000D03*
X77470000Y-78740000D03*
X77470000Y-76200000D03*
X77470000Y-73660000D03*
X77470000Y-71120000D03*
X77470000Y-68580000D03*
X100330000Y-68580000D03*
X100330000Y-71120000D03*
X100330000Y-73660000D03*
X100330000Y-76200000D03*
X100330000Y-78740000D03*
X100330000Y-81280000D03*
X100330000Y-83820000D03*
X100330000Y-86360000D03*
D11*
X109220000Y-57150000D03*
D10*
X111760000Y-57150000D03*
X114300000Y-57150000D03*
X116840000Y-57150000D03*
X85090000Y-71120000D03*
X85090000Y-73660000D03*
D11*
X85090000Y-76200000D03*
X118110000Y-62230000D03*
D10*
X118110000Y-64770000D03*
X118110000Y-67310000D03*
X118110000Y-69850000D03*
X93980000Y-55880000D03*
X91440000Y-55880000D03*
X88900000Y-55880000D03*
D11*
X86360000Y-55880000D03*
D10*
X69850000Y-76200000D03*
X69850000Y-78740000D03*
D11*
X69850000Y-81280000D03*
X77470000Y-55880000D03*
D10*
X80010000Y-55880000D03*
D11*
X111760000Y-50800000D03*
D10*
X111760000Y-53340000D03*
D16*
X111760000Y-76200000D03*
X111760000Y-73660000D03*
X111760000Y-71120000D03*
X111760000Y-81280000D03*
X111760000Y-86360000D03*
X111760000Y-83820000D03*
X111760000Y-66040000D03*
X111760000Y-68580000D03*
X111760000Y-78740000D03*
X111760000Y-88900000D03*
X109220000Y-78740000D03*
X109220000Y-88900000D03*
X109220000Y-83820000D03*
X109220000Y-81280000D03*
X109220000Y-73660000D03*
X109220000Y-76200000D03*
X109220000Y-71120000D03*
X109220000Y-66040000D03*
X109220000Y-68580000D03*
X109220000Y-86360000D03*
X93980000Y-88900000D03*
X93980000Y-86360000D03*
X93980000Y-83820000D03*
X93980000Y-81280000D03*
X93980000Y-78740000D03*
X93980000Y-76200000D03*
X93980000Y-73660000D03*
X93980000Y-71120000D03*
X93980000Y-68580000D03*
X93980000Y-66040000D03*
D17*
X77470000Y-68580000D02*
X79470000Y-68580000D01*
X73660000Y-57840000D02*
X75620000Y-55880000D01*
X75620000Y-55880000D02*
X77470000Y-55880000D01*
X74930000Y-68580000D02*
X73660000Y-67310000D01*
X77470000Y-68580000D02*
X74930000Y-68580000D01*
X69850000Y-81280000D02*
X69850000Y-86360000D01*
X69850000Y-86360000D02*
X72390000Y-88900000D01*
X72390000Y-88900000D02*
X82550000Y-88900000D01*
X93980000Y-88900000D02*
X85090000Y-88900000D01*
X85090000Y-88900000D02*
X82550000Y-88900000D01*
X81280000Y-78740000D02*
X85090000Y-78740000D01*
X91440000Y-81280000D02*
X85090000Y-81280000D01*
X85090000Y-78740000D02*
X85090000Y-81280000D01*
X85090000Y-81280000D02*
X85090000Y-88900000D01*
X69850000Y-62230000D02*
X73660000Y-62230000D01*
X73660000Y-67310000D02*
X73660000Y-62230000D01*
X73660000Y-62230000D02*
X73660000Y-57840000D01*
X81280000Y-70390000D02*
X79470000Y-68580000D01*
X81280000Y-78740000D02*
X81280000Y-70390000D01*
X85090000Y-78740000D02*
X85090000Y-76200000D01*
D18*
X106680000Y-76200000D02*
X109220000Y-76200000D01*
X106680000Y-59690000D02*
X106680000Y-76200000D01*
X91440000Y-55880000D02*
X91440000Y-59690000D01*
X91440000Y-59690000D02*
X106680000Y-59690000D01*
X105410000Y-78740000D02*
X109220000Y-78740000D01*
X88900000Y-55880000D02*
X88900000Y-60960000D01*
X104140000Y-77470000D02*
X105410000Y-78740000D01*
X90170000Y-62230000D02*
X101600000Y-62230000D01*
X88900000Y-60960000D02*
X90170000Y-62230000D01*
X104140000Y-64770000D02*
X104140000Y-77470000D01*
X101600000Y-62230000D02*
X104140000Y-64770000D01*
X111760000Y-78740000D02*
X118110000Y-78740000D01*
X111760000Y-76200000D02*
X118110000Y-76200000D01*
X93980000Y-83820000D02*
X97790000Y-83820000D01*
X97790000Y-83820000D02*
X97790000Y-81280000D01*
X97790000Y-81280000D02*
X100330000Y-81280000D01*
X93980000Y-81280000D02*
X96520000Y-81280000D01*
X96520000Y-81280000D02*
X96520000Y-78740000D01*
X96520000Y-78740000D02*
X100330000Y-78740000D01*
D19*
X111760000Y-66040000D02*
X114300000Y-66040000D01*
X114300000Y-66040000D02*
X114300000Y-69850000D01*
X114300000Y-69850000D02*
X118110000Y-69850000D01*
X93980000Y-66040000D02*
X93980000Y-71120000D01*
X88900000Y-52070000D02*
X91507919Y-52070000D01*
X69850000Y-57150000D02*
X74930000Y-52070000D01*
X111760000Y-66040000D02*
X111760000Y-53340000D01*
X111760000Y-53340000D02*
X105410000Y-53340000D01*
X104140000Y-52070000D02*
X96587919Y-52070000D01*
X105410000Y-53340000D02*
X104140000Y-52070000D01*
X93980000Y-55880000D02*
X93980000Y-52070000D01*
X96587919Y-52070000D02*
X93980000Y-52070000D01*
X93980000Y-52070000D02*
X91507919Y-52070000D01*
X74930000Y-52070000D02*
X81280000Y-52070000D01*
X82550000Y-59690000D02*
X82550000Y-52070000D01*
X82550000Y-52070000D02*
X88900000Y-52070000D01*
X81280000Y-52070000D02*
X82550000Y-52070000D01*
X93980000Y-66040000D02*
X88900000Y-66040000D01*
X82550000Y-59690000D02*
X88900000Y-66040000D01*
X120650000Y-69850000D02*
X118110000Y-69850000D01*
X121920000Y-93980000D02*
X121920000Y-71120000D01*
X121920000Y-71120000D02*
X120650000Y-69850000D01*
X69850000Y-59690000D02*
X69850000Y-57150000D01*
X66040000Y-60960000D02*
X66040000Y-76200000D01*
X69850000Y-59690000D02*
X67310000Y-59690000D01*
X66040000Y-76200000D02*
X69850000Y-76200000D01*
X67310000Y-59690000D02*
X66040000Y-60960000D01*
X93980000Y-71120000D02*
X100330000Y-71120000D01*
X67000000Y-93980000D02*
X69850000Y-93980000D01*
X66040000Y-93020000D02*
X67000000Y-93980000D01*
X66040000Y-76200000D02*
X66040000Y-93020000D01*
D18*
X118030000Y-93980000D02*
X119380000Y-93980000D01*
D19*
X121920000Y-93980000D02*
X121920000Y-95250000D01*
X93980000Y-96520000D02*
X85090000Y-96520000D01*
X118110000Y-95250000D02*
X119380000Y-96520000D01*
X118110000Y-93980000D02*
X118110000Y-95250000D01*
X93980000Y-96520000D02*
X119380000Y-96520000D01*
X119380000Y-96520000D02*
X120650000Y-96520000D01*
X118110000Y-93980000D02*
X121920000Y-93980000D01*
X118110000Y-93980000D02*
X119380000Y-93980000D01*
X119380000Y-93980000D02*
X119380000Y-95250000D01*
X120650000Y-95250000D02*
X121285000Y-95885000D01*
X120650000Y-96520000D02*
X121285000Y-95885000D01*
X119380000Y-95250000D02*
X120650000Y-95250000D01*
X121285000Y-95885000D02*
X121920000Y-95250000D01*
X66040000Y-60960000D02*
X69850000Y-57150000D01*
D20*
X69850000Y-78740000D02*
X71120000Y-78740000D01*
D18*
X69850000Y-78740000D02*
X77470000Y-78740000D01*
X111760000Y-88900000D02*
X118110000Y-88900000D01*
X111760000Y-86360000D02*
X118110000Y-86360000D01*
X111760000Y-83820000D02*
X118110000Y-83820000D01*
X111760000Y-81280000D02*
X118110000Y-81280000D01*
X93980000Y-73660000D02*
X85090000Y-73660000D01*
X100330000Y-83820000D02*
X104140000Y-83820000D01*
X100330000Y-86360000D02*
X104140000Y-86360000D01*
X109220000Y-83820000D02*
X106680000Y-86360000D01*
X106680000Y-86360000D02*
X106680000Y-87630000D01*
X106680000Y-87630000D02*
X104140000Y-90170000D01*
X100410000Y-93980000D02*
X99060000Y-93980000D01*
X104140000Y-90250000D02*
X100410000Y-93980000D01*
X104140000Y-90170000D02*
X104140000Y-90250000D01*
X109220000Y-86360000D02*
X106680000Y-88900000D01*
X106680000Y-88900000D02*
X106680000Y-91440000D01*
X106680000Y-91440000D02*
X104140000Y-93980000D01*
X109220000Y-88900000D02*
X109220000Y-93980000D01*
M02*
