G04 #@! TF.GenerationSoftware,KiCad,Pcbnew,5.1.4+dfsg1-1*
G04 #@! TF.CreationDate,2019-10-31T22:05:16+07:00*
G04 #@! TF.ProjectId,myFarm,6d794661-726d-42e6-9b69-6361645f7063,rev?*
G04 #@! TF.SameCoordinates,Original*
G04 #@! TF.FileFunction,Legend,Top*
G04 #@! TF.FilePolarity,Positive*
%FSLAX46Y46*%
G04 Gerber Fmt 4.6, Leading zero omitted, Abs format (unit mm)*
G04 Created by KiCad (PCBNEW 5.1.4+dfsg1-1) date 2019-10-31 22:05:16*
%MOMM*%
%LPD*%
G04 APERTURE LIST*
%ADD10C,0.120000*%
%ADD11C,0.150000*%
G04 APERTURE END LIST*
D10*
X102810000Y-92650000D02*
X104140000Y-92650000D01*
X102810000Y-93980000D02*
X102810000Y-92650000D01*
X102810000Y-95250000D02*
X105470000Y-95250000D01*
X105470000Y-95250000D02*
X105470000Y-97850000D01*
X102810000Y-95250000D02*
X102810000Y-97850000D01*
X102810000Y-97850000D02*
X105470000Y-97850000D01*
X116780000Y-74870000D02*
X118110000Y-74870000D01*
X116780000Y-76200000D02*
X116780000Y-74870000D01*
X116780000Y-77470000D02*
X119440000Y-77470000D01*
X119440000Y-77470000D02*
X119440000Y-95310000D01*
X116780000Y-77470000D02*
X116780000Y-95310000D01*
X116780000Y-95310000D02*
X119440000Y-95310000D01*
X86420000Y-97850000D02*
X85090000Y-97850000D01*
X86420000Y-96520000D02*
X86420000Y-97850000D01*
X86420000Y-95250000D02*
X83760000Y-95250000D01*
X83760000Y-95250000D02*
X83760000Y-92650000D01*
X86420000Y-95250000D02*
X86420000Y-92650000D01*
X86420000Y-92650000D02*
X83760000Y-92650000D01*
X107890000Y-92650000D02*
X109220000Y-92650000D01*
X107890000Y-93980000D02*
X107890000Y-92650000D01*
X107890000Y-95250000D02*
X110550000Y-95250000D01*
X110550000Y-95250000D02*
X110550000Y-97850000D01*
X107890000Y-95250000D02*
X107890000Y-97850000D01*
X107890000Y-97850000D02*
X110550000Y-97850000D01*
X97730000Y-92650000D02*
X99060000Y-92650000D01*
X97730000Y-93980000D02*
X97730000Y-92650000D01*
X97730000Y-95250000D02*
X100390000Y-95250000D01*
X100390000Y-95250000D02*
X100390000Y-97850000D01*
X97730000Y-95250000D02*
X97730000Y-97850000D01*
X97730000Y-97850000D02*
X100390000Y-97850000D01*
X92650000Y-92650000D02*
X93980000Y-92650000D01*
X92650000Y-93980000D02*
X92650000Y-92650000D01*
X92650000Y-95250000D02*
X95310000Y-95250000D01*
X95310000Y-95250000D02*
X95310000Y-97850000D01*
X92650000Y-95250000D02*
X92650000Y-97850000D01*
X92650000Y-97850000D02*
X95310000Y-97850000D01*
X71180000Y-73720000D02*
X69850000Y-73720000D01*
X71180000Y-72390000D02*
X71180000Y-73720000D01*
X71180000Y-71120000D02*
X68520000Y-71120000D01*
X68520000Y-71120000D02*
X68520000Y-58360000D01*
X71180000Y-71120000D02*
X71180000Y-58360000D01*
X71180000Y-58360000D02*
X68520000Y-58360000D01*
X68520000Y-95310000D02*
X68520000Y-93980000D01*
X69850000Y-95310000D02*
X68520000Y-95310000D01*
X71120000Y-95310000D02*
X71120000Y-92650000D01*
X71120000Y-92650000D02*
X73720000Y-92650000D01*
X71120000Y-95310000D02*
X73720000Y-95310000D01*
X73720000Y-95310000D02*
X73720000Y-92650000D01*
X86420000Y-77530000D02*
X85090000Y-77530000D01*
X86420000Y-76200000D02*
X86420000Y-77530000D01*
X86420000Y-74930000D02*
X83760000Y-74930000D01*
X83760000Y-74930000D02*
X83760000Y-69790000D01*
X86420000Y-74930000D02*
X86420000Y-69790000D01*
X86420000Y-69790000D02*
X83760000Y-69790000D01*
X116780000Y-71180000D02*
X119440000Y-71180000D01*
X116780000Y-63500000D02*
X116780000Y-71180000D01*
X119440000Y-63500000D02*
X119440000Y-71180000D01*
X116780000Y-63500000D02*
X119440000Y-63500000D01*
X116780000Y-62230000D02*
X116780000Y-60900000D01*
X116780000Y-60900000D02*
X118110000Y-60900000D01*
X85030000Y-57210000D02*
X85030000Y-55880000D01*
X86360000Y-57210000D02*
X85030000Y-57210000D01*
X87630000Y-57210000D02*
X87630000Y-54550000D01*
X87630000Y-54550000D02*
X95310000Y-54550000D01*
X87630000Y-57210000D02*
X95310000Y-57210000D01*
X95310000Y-57210000D02*
X95310000Y-54550000D01*
X71180000Y-82610000D02*
X69850000Y-82610000D01*
X71180000Y-81280000D02*
X71180000Y-82610000D01*
X71180000Y-80010000D02*
X68520000Y-80010000D01*
X68520000Y-80010000D02*
X68520000Y-74870000D01*
X71180000Y-80010000D02*
X71180000Y-74870000D01*
X71180000Y-74870000D02*
X68520000Y-74870000D01*
X81340000Y-57210000D02*
X81340000Y-54550000D01*
X78740000Y-57210000D02*
X81340000Y-57210000D01*
X78740000Y-54550000D02*
X81340000Y-54550000D01*
X78740000Y-57210000D02*
X78740000Y-54550000D01*
X77470000Y-57210000D02*
X76140000Y-57210000D01*
X76140000Y-57210000D02*
X76140000Y-55880000D01*
X113200000Y-49470000D02*
X113200000Y-54670000D01*
X113200000Y-54670000D02*
X115860000Y-54670000D01*
X115860000Y-54670000D02*
X115860000Y-49470000D01*
X115860000Y-49470000D02*
X113200000Y-49470000D01*
X115860000Y-50420000D02*
X121860000Y-50420000D01*
X121860000Y-50420000D02*
X121860000Y-51180000D01*
X121860000Y-51180000D02*
X115860000Y-51180000D01*
X115860000Y-50480000D02*
X121860000Y-50480000D01*
X115860000Y-50600000D02*
X121860000Y-50600000D01*
X115860000Y-50720000D02*
X121860000Y-50720000D01*
X115860000Y-50840000D02*
X121860000Y-50840000D01*
X115860000Y-50960000D02*
X121860000Y-50960000D01*
X115860000Y-51080000D02*
X121860000Y-51080000D01*
X112870000Y-50420000D02*
X113200000Y-50420000D01*
X112870000Y-51180000D02*
X113200000Y-51180000D01*
X113200000Y-52070000D02*
X115860000Y-52070000D01*
X115860000Y-52960000D02*
X121860000Y-52960000D01*
X121860000Y-52960000D02*
X121860000Y-53720000D01*
X121860000Y-53720000D02*
X115860000Y-53720000D01*
X112802929Y-52960000D02*
X113200000Y-52960000D01*
X112802929Y-53720000D02*
X113200000Y-53720000D01*
X110490000Y-50800000D02*
X110490000Y-49530000D01*
X110490000Y-49530000D02*
X111760000Y-49530000D01*
D11*
X103330476Y-91102380D02*
X103330476Y-91816666D01*
X103282857Y-91959523D01*
X103187619Y-92054761D01*
X103044761Y-92102380D01*
X102949523Y-92102380D01*
X104330476Y-92102380D02*
X103759047Y-92102380D01*
X104044761Y-92102380D02*
X104044761Y-91102380D01*
X103949523Y-91245238D01*
X103854285Y-91340476D01*
X103759047Y-91388095D01*
X104663809Y-91102380D02*
X105282857Y-91102380D01*
X104949523Y-91483333D01*
X105092380Y-91483333D01*
X105187619Y-91530952D01*
X105235238Y-91578571D01*
X105282857Y-91673809D01*
X105282857Y-91911904D01*
X105235238Y-92007142D01*
X105187619Y-92054761D01*
X105092380Y-92102380D01*
X104806666Y-92102380D01*
X104711428Y-92054761D01*
X104663809Y-92007142D01*
X117776666Y-73322380D02*
X117776666Y-74036666D01*
X117729047Y-74179523D01*
X117633809Y-74274761D01*
X117490952Y-74322380D01*
X117395714Y-74322380D01*
X118729047Y-73322380D02*
X118252857Y-73322380D01*
X118205238Y-73798571D01*
X118252857Y-73750952D01*
X118348095Y-73703333D01*
X118586190Y-73703333D01*
X118681428Y-73750952D01*
X118729047Y-73798571D01*
X118776666Y-73893809D01*
X118776666Y-74131904D01*
X118729047Y-74227142D01*
X118681428Y-74274761D01*
X118586190Y-74322380D01*
X118348095Y-74322380D01*
X118252857Y-74274761D01*
X118205238Y-74227142D01*
X84280476Y-98302380D02*
X84280476Y-99016666D01*
X84232857Y-99159523D01*
X84137619Y-99254761D01*
X83994761Y-99302380D01*
X83899523Y-99302380D01*
X85280476Y-99302380D02*
X84709047Y-99302380D01*
X84994761Y-99302380D02*
X84994761Y-98302380D01*
X84899523Y-98445238D01*
X84804285Y-98540476D01*
X84709047Y-98588095D01*
X86185238Y-98302380D02*
X85709047Y-98302380D01*
X85661428Y-98778571D01*
X85709047Y-98730952D01*
X85804285Y-98683333D01*
X86042380Y-98683333D01*
X86137619Y-98730952D01*
X86185238Y-98778571D01*
X86232857Y-98873809D01*
X86232857Y-99111904D01*
X86185238Y-99207142D01*
X86137619Y-99254761D01*
X86042380Y-99302380D01*
X85804285Y-99302380D01*
X85709047Y-99254761D01*
X85661428Y-99207142D01*
X108410476Y-91102380D02*
X108410476Y-91816666D01*
X108362857Y-91959523D01*
X108267619Y-92054761D01*
X108124761Y-92102380D01*
X108029523Y-92102380D01*
X109410476Y-92102380D02*
X108839047Y-92102380D01*
X109124761Y-92102380D02*
X109124761Y-91102380D01*
X109029523Y-91245238D01*
X108934285Y-91340476D01*
X108839047Y-91388095D01*
X110267619Y-91435714D02*
X110267619Y-92102380D01*
X110029523Y-91054761D02*
X109791428Y-91769047D01*
X110410476Y-91769047D01*
X98250476Y-91102380D02*
X98250476Y-91816666D01*
X98202857Y-91959523D01*
X98107619Y-92054761D01*
X97964761Y-92102380D01*
X97869523Y-92102380D01*
X99250476Y-92102380D02*
X98679047Y-92102380D01*
X98964761Y-92102380D02*
X98964761Y-91102380D01*
X98869523Y-91245238D01*
X98774285Y-91340476D01*
X98679047Y-91388095D01*
X99631428Y-91197619D02*
X99679047Y-91150000D01*
X99774285Y-91102380D01*
X100012380Y-91102380D01*
X100107619Y-91150000D01*
X100155238Y-91197619D01*
X100202857Y-91292857D01*
X100202857Y-91388095D01*
X100155238Y-91530952D01*
X99583809Y-92102380D01*
X100202857Y-92102380D01*
X93646666Y-91102380D02*
X93646666Y-91816666D01*
X93599047Y-91959523D01*
X93503809Y-92054761D01*
X93360952Y-92102380D01*
X93265714Y-92102380D01*
X94170476Y-92102380D02*
X94360952Y-92102380D01*
X94456190Y-92054761D01*
X94503809Y-92007142D01*
X94599047Y-91864285D01*
X94646666Y-91673809D01*
X94646666Y-91292857D01*
X94599047Y-91197619D01*
X94551428Y-91150000D01*
X94456190Y-91102380D01*
X94265714Y-91102380D01*
X94170476Y-91150000D01*
X94122857Y-91197619D01*
X94075238Y-91292857D01*
X94075238Y-91530952D01*
X94122857Y-91626190D01*
X94170476Y-91673809D01*
X94265714Y-91721428D01*
X94456190Y-91721428D01*
X94551428Y-91673809D01*
X94599047Y-91626190D01*
X94646666Y-91530952D01*
X69040476Y-74172380D02*
X69040476Y-74886666D01*
X68992857Y-75029523D01*
X68897619Y-75124761D01*
X68754761Y-75172380D01*
X68659523Y-75172380D01*
X70040476Y-75172380D02*
X69469047Y-75172380D01*
X69754761Y-75172380D02*
X69754761Y-74172380D01*
X69659523Y-74315238D01*
X69564285Y-74410476D01*
X69469047Y-74458095D01*
X70659523Y-74172380D02*
X70754761Y-74172380D01*
X70850000Y-74220000D01*
X70897619Y-74267619D01*
X70945238Y-74362857D01*
X70992857Y-74553333D01*
X70992857Y-74791428D01*
X70945238Y-74981904D01*
X70897619Y-75077142D01*
X70850000Y-75124761D01*
X70754761Y-75172380D01*
X70659523Y-75172380D01*
X70564285Y-75124761D01*
X70516666Y-75077142D01*
X70469047Y-74981904D01*
X70421428Y-74791428D01*
X70421428Y-74553333D01*
X70469047Y-74362857D01*
X70516666Y-74267619D01*
X70564285Y-74220000D01*
X70659523Y-74172380D01*
X66972380Y-94313333D02*
X67686666Y-94313333D01*
X67829523Y-94360952D01*
X67924761Y-94456190D01*
X67972380Y-94599047D01*
X67972380Y-94694285D01*
X67400952Y-93694285D02*
X67353333Y-93789523D01*
X67305714Y-93837142D01*
X67210476Y-93884761D01*
X67162857Y-93884761D01*
X67067619Y-93837142D01*
X67020000Y-93789523D01*
X66972380Y-93694285D01*
X66972380Y-93503809D01*
X67020000Y-93408571D01*
X67067619Y-93360952D01*
X67162857Y-93313333D01*
X67210476Y-93313333D01*
X67305714Y-93360952D01*
X67353333Y-93408571D01*
X67400952Y-93503809D01*
X67400952Y-93694285D01*
X67448571Y-93789523D01*
X67496190Y-93837142D01*
X67591428Y-93884761D01*
X67781904Y-93884761D01*
X67877142Y-93837142D01*
X67924761Y-93789523D01*
X67972380Y-93694285D01*
X67972380Y-93503809D01*
X67924761Y-93408571D01*
X67877142Y-93360952D01*
X67781904Y-93313333D01*
X67591428Y-93313333D01*
X67496190Y-93360952D01*
X67448571Y-93408571D01*
X67400952Y-93503809D01*
X84756666Y-77982380D02*
X84756666Y-78696666D01*
X84709047Y-78839523D01*
X84613809Y-78934761D01*
X84470952Y-78982380D01*
X84375714Y-78982380D01*
X85661428Y-77982380D02*
X85470952Y-77982380D01*
X85375714Y-78030000D01*
X85328095Y-78077619D01*
X85232857Y-78220476D01*
X85185238Y-78410952D01*
X85185238Y-78791904D01*
X85232857Y-78887142D01*
X85280476Y-78934761D01*
X85375714Y-78982380D01*
X85566190Y-78982380D01*
X85661428Y-78934761D01*
X85709047Y-78887142D01*
X85756666Y-78791904D01*
X85756666Y-78553809D01*
X85709047Y-78458571D01*
X85661428Y-78410952D01*
X85566190Y-78363333D01*
X85375714Y-78363333D01*
X85280476Y-78410952D01*
X85232857Y-78458571D01*
X85185238Y-78553809D01*
X117776666Y-59352380D02*
X117776666Y-60066666D01*
X117729047Y-60209523D01*
X117633809Y-60304761D01*
X117490952Y-60352380D01*
X117395714Y-60352380D01*
X118681428Y-59685714D02*
X118681428Y-60352380D01*
X118443333Y-59304761D02*
X118205238Y-60019047D01*
X118824285Y-60019047D01*
X83482380Y-56213333D02*
X84196666Y-56213333D01*
X84339523Y-56260952D01*
X84434761Y-56356190D01*
X84482380Y-56499047D01*
X84482380Y-56594285D01*
X83482380Y-55832380D02*
X83482380Y-55213333D01*
X83863333Y-55546666D01*
X83863333Y-55403809D01*
X83910952Y-55308571D01*
X83958571Y-55260952D01*
X84053809Y-55213333D01*
X84291904Y-55213333D01*
X84387142Y-55260952D01*
X84434761Y-55308571D01*
X84482380Y-55403809D01*
X84482380Y-55689523D01*
X84434761Y-55784761D01*
X84387142Y-55832380D01*
X69516666Y-83062380D02*
X69516666Y-83776666D01*
X69469047Y-83919523D01*
X69373809Y-84014761D01*
X69230952Y-84062380D01*
X69135714Y-84062380D01*
X69945238Y-83157619D02*
X69992857Y-83110000D01*
X70088095Y-83062380D01*
X70326190Y-83062380D01*
X70421428Y-83110000D01*
X70469047Y-83157619D01*
X70516666Y-83252857D01*
X70516666Y-83348095D01*
X70469047Y-83490952D01*
X69897619Y-84062380D01*
X70516666Y-84062380D01*
X74592380Y-56213333D02*
X75306666Y-56213333D01*
X75449523Y-56260952D01*
X75544761Y-56356190D01*
X75592380Y-56499047D01*
X75592380Y-56594285D01*
X75592380Y-55213333D02*
X75592380Y-55784761D01*
X75592380Y-55499047D02*
X74592380Y-55499047D01*
X74735238Y-55594285D01*
X74830476Y-55689523D01*
X74878095Y-55784761D01*
X115811666Y-47982380D02*
X115811666Y-48696666D01*
X115764047Y-48839523D01*
X115668809Y-48934761D01*
X115525952Y-48982380D01*
X115430714Y-48982380D01*
X116478333Y-47982380D02*
X116573571Y-47982380D01*
X116668809Y-48030000D01*
X116716428Y-48077619D01*
X116764047Y-48172857D01*
X116811666Y-48363333D01*
X116811666Y-48601428D01*
X116764047Y-48791904D01*
X116716428Y-48887142D01*
X116668809Y-48934761D01*
X116573571Y-48982380D01*
X116478333Y-48982380D01*
X116383095Y-48934761D01*
X116335476Y-48887142D01*
X116287857Y-48791904D01*
X116240238Y-48601428D01*
X116240238Y-48363333D01*
X116287857Y-48172857D01*
X116335476Y-48077619D01*
X116383095Y-48030000D01*
X116478333Y-47982380D01*
X102108095Y-62182380D02*
X102108095Y-62991904D01*
X102155714Y-63087142D01*
X102203333Y-63134761D01*
X102298571Y-63182380D01*
X102489047Y-63182380D01*
X102584285Y-63134761D01*
X102631904Y-63087142D01*
X102679523Y-62991904D01*
X102679523Y-62182380D01*
X103108095Y-62277619D02*
X103155714Y-62230000D01*
X103250952Y-62182380D01*
X103489047Y-62182380D01*
X103584285Y-62230000D01*
X103631904Y-62277619D01*
X103679523Y-62372857D01*
X103679523Y-62468095D01*
X103631904Y-62610952D01*
X103060476Y-63182380D01*
X103679523Y-63182380D01*
M02*
